<svg xmlns="http://www.w3.org/2000/svg" viewBox="0 0 1920 1080" preserveAspectRatio="xMidYMid slice">
  <defs>
    <linearGradient id="g" x1="0" y1="0" x2="0" y2="1">
      <stop offset="0" stop-color="#1a3766"/>
      <stop offset="0.6" stop-color="#0d2340"/>
      <stop offset="1" stop-color="#050f24"/>
    </linearGradient>
    <radialGradient id="glow" cx="50%" cy="40%" r="60%">
      <stop offset="0" stop-color="#c8a45c" stop-opacity="0.18"/>
      <stop offset="1" stop-color="#0d2340" stop-opacity="0"/>
    </radialGradient>
  </defs>
  <rect width="1920" height="1080" fill="url(#g)"/>
  <rect width="1920" height="1080" fill="url(#glow)"/>
  <!-- Silueta ciudad -->
  <g fill="#050f24" opacity="0.7">
    <rect x="100" y="700" width="180" height="380"/>
    <rect x="290" y="620" width="140" height="460"/>
    <rect x="440" y="680" width="200" height="400"/>
    <rect x="650" y="580" width="160" height="500"/>
    <rect x="820" y="660" width="220" height="420"/>
    <rect x="1050" y="600" width="160" height="480"/>
    <rect x="1220" y="700" width="180" height="380"/>
    <rect x="1410" y="620" width="200" height="460"/>
    <rect x="1620" y="680" width="180" height="400"/>
  </g>
  <!-- Ventanas iluminadas -->
  <g fill="#c8a45c" opacity="0.5">
    <rect x="130" y="740" width="14" height="20"/>
    <rect x="170" y="800" width="14" height="20"/>
    <rect x="220" y="860" width="14" height="20"/>
    <rect x="320" y="680" width="14" height="20"/>
    <rect x="370" y="740" width="14" height="20"/>
    <rect x="490" y="720" width="14" height="20"/>
    <rect x="560" y="800" width="14" height="20"/>
    <rect x="690" y="640" width="14" height="20"/>
    <rect x="740" y="720" width="14" height="20"/>
    <rect x="870" y="700" width="14" height="20"/>
    <rect x="940" y="780" width="14" height="20"/>
    <rect x="1090" y="660" width="14" height="20"/>
    <rect x="1150" y="740" width="14" height="20"/>
    <rect x="1260" y="740" width="14" height="20"/>
    <rect x="1340" y="820" width="14" height="20"/>
    <rect x="1450" y="680" width="14" height="20"/>
    <rect x="1520" y="760" width="14" height="20"/>
    <rect x="1660" y="720" width="14" height="20"/>
    <rect x="1730" y="800" width="14" height="20"/>
  </g>
  <text x="960" y="540" text-anchor="middle" font-family="Inter, sans-serif" font-size="14" letter-spacing="6" fill="#c8a45c" opacity="0.45">SUSTITUIR · images/hero.jpg</text>
</svg>
